<svg width="73" height="62" viewBox="0 0 73 62" fill="none" xmlns="http://www.w3.org/2000/svg">
<path d="M52.8553 21.634C52.514 21.2895 52.1082 21.0161 51.6612 20.8293C51.2143 20.6426 50.735 20.5463 50.2508 20.5459H50.2385C49.7522 20.5444 49.2705 20.6399 48.8213 20.8267C48.372 21.0134 47.9643 21.2879 47.6216 21.634L41.5747 27.7011C41.5081 26.7681 41.0924 25.895 40.4109 25.2567C39.7295 24.6184 38.8327 24.2623 37.9005 24.2597H29.2639C27.6284 24.2616 26.0604 24.9144 24.904 26.0747C23.7475 27.2351 23.0969 28.8083 23.0949 30.4493V31.275L19.3936 36.2217L21.3676 37.7072L25.5625 32.0994V30.4493C25.5635 29.4646 25.9538 28.5206 26.6477 27.8243C27.3417 27.1281 28.2826 26.7365 29.2639 26.7355H37.9005C38.2277 26.7355 38.5415 26.8659 38.7729 27.0981C39.0043 27.3302 39.1343 27.6451 39.1343 27.9734C39.1343 28.3017 39.0043 28.6166 38.7729 28.8488C38.5415 29.0809 38.2277 29.2113 37.9005 29.2113H32.9653V31.6872H39.0467C39.695 31.689 40.3373 31.5616 40.9362 31.3126C41.5351 31.0635 42.0788 30.6977 42.5359 30.2363L49.3662 23.3844C49.4804 23.2691 49.6164 23.1776 49.7661 23.1154C49.9158 23.0531 50.0764 23.0213 50.2385 23.0217H50.2422C50.4858 23.0225 50.7238 23.0957 50.9261 23.232C51.1284 23.3683 51.2859 23.5617 51.3788 23.7877C51.4717 24.0137 51.4958 24.2622 51.4481 24.502C51.4004 24.7418 51.283 24.962 51.1108 25.1349L41.9634 34.3128C41.6204 34.659 41.2124 34.9334 40.763 35.1201C40.3136 35.3069 39.8317 35.4024 39.3453 35.401H30.4977V37.8768H39.3453C40.1559 37.8791 40.9589 37.72 41.7078 37.4087C42.4566 37.0974 43.1365 36.6401 43.708 36.0633L52.8553 26.8853C53.1991 26.5405 53.4718 26.1312 53.6578 25.6807C53.8438 25.2302 53.9396 24.7473 53.9396 24.2597C53.9396 23.772 53.8438 23.2891 53.6578 22.8386C53.4718 22.3881 53.1991 21.9788 52.8553 21.634ZM43.5587 11.3679L39.1343 15.5942V3.21497H36.6667V15.5942L32.2423 11.3679L30.4977 13.1183L37.9005 20.5459L45.3033 13.1183L43.5587 11.3679Z" fill="white"/>
<path d="M27.3299 52.7122C27.5066 52.7401 27.6671 52.8122 27.8113 52.9285C27.9602 53.0448 28.0765 53.189 28.1603 53.3612C28.2486 53.5333 28.2928 53.717 28.2928 53.9124C28.2928 54.159 28.23 54.3823 28.1044 54.5823C27.9788 54.7777 27.7951 54.9336 27.5532 55.0499C27.3159 55.1615 27.0344 55.2173 26.7088 55.2173H24.8945V50.3536H26.639C26.9693 50.3536 27.2508 50.4094 27.4834 50.521C27.716 50.628 27.8904 50.7746 28.0067 50.9607C28.123 51.1468 28.1812 51.3561 28.1812 51.5887C28.1812 51.8771 28.1021 52.1167 27.9439 52.3075C27.7904 52.4935 27.5857 52.6284 27.3299 52.7122ZM25.5295 52.454H26.5971C26.8949 52.454 27.1252 52.3842 27.288 52.2447C27.4508 52.1051 27.5322 51.912 27.5322 51.6655C27.5322 51.4189 27.4508 51.2258 27.288 51.0863C27.1252 50.9467 26.8902 50.8769 26.5832 50.8769H25.5295V52.454ZM26.653 54.694C26.9693 54.694 27.2159 54.6196 27.3927 54.4707C27.5694 54.3218 27.6578 54.1148 27.6578 53.8496C27.6578 53.5798 27.5648 53.3681 27.3787 53.2146C27.1926 53.0564 26.9437 52.9774 26.632 52.9774H25.5295V54.694H26.653ZM30.8418 55.2801C30.4836 55.2801 30.158 55.1987 29.8649 55.0359C29.5765 54.8731 29.3485 54.6428 29.181 54.3451C29.0182 54.0427 28.9368 53.6938 28.9368 53.2984C28.9368 52.9076 29.0205 52.5633 29.188 52.2656C29.3601 51.9632 29.5927 51.7329 29.8858 51.5747C30.1789 51.4119 30.5069 51.3305 30.8697 51.3305C31.2326 51.3305 31.5606 51.4119 31.8537 51.5747C32.1467 51.7329 32.377 51.9609 32.5445 52.2586C32.7166 52.5563 32.8027 52.9029 32.8027 53.2984C32.8027 53.6938 32.7143 54.0427 32.5375 54.3451C32.3654 54.6428 32.1305 54.8731 31.8327 55.0359C31.535 55.1987 31.2047 55.2801 30.8418 55.2801ZM30.8418 54.7219C31.0698 54.7219 31.2838 54.6684 31.4838 54.5614C31.6839 54.4544 31.8444 54.2939 31.9653 54.0799C32.0909 53.8659 32.1537 53.6054 32.1537 53.2984C32.1537 52.9913 32.0932 52.7308 31.9723 52.5168C31.8513 52.3028 31.6932 52.1446 31.4978 52.0423C31.3024 51.9353 31.0907 51.8818 30.8628 51.8818C30.6302 51.8818 30.4162 51.9353 30.2208 52.0423C30.03 52.1446 29.8765 52.3028 29.7602 52.5168C29.6439 52.7308 29.5858 52.9913 29.5858 53.2984C29.5858 53.61 29.6416 53.8729 29.7532 54.0869C29.8695 54.3009 30.0231 54.4614 30.2138 54.5684C30.4045 54.6707 30.6139 54.7219 30.8418 54.7219ZM34.2726 52.0144C34.3843 51.7957 34.5425 51.6259 34.7471 51.505C34.9565 51.384 35.21 51.3235 35.5078 51.3235V51.9795H35.3403C34.6285 51.9795 34.2726 52.3656 34.2726 53.1379V55.2173H33.6376V51.3933H34.2726V52.0144ZM36.8758 52.0144C36.9875 51.7957 37.1456 51.6259 37.3503 51.505C37.5597 51.384 37.8132 51.3235 38.1109 51.3235V51.9795H37.9435C37.2317 51.9795 36.8758 52.3656 36.8758 53.1379V55.2173H36.2408V51.3933H36.8758V52.0144ZM40.5118 55.2801C40.1535 55.2801 39.8279 55.1987 39.5348 55.0359C39.2464 54.8731 39.0184 54.6428 38.851 54.3451C38.6881 54.0427 38.6067 53.6938 38.6067 53.2984C38.6067 52.9076 38.6905 52.5633 38.8579 52.2656C39.0301 51.9632 39.2627 51.7329 39.5557 51.5747C39.8488 51.4119 40.1768 51.3305 40.5397 51.3305C40.9025 51.3305 41.2305 51.4119 41.5236 51.5747C41.8167 51.7329 42.047 51.9609 42.2144 52.2586C42.3866 52.5563 42.4726 52.9029 42.4726 53.2984C42.4726 53.6938 42.3842 54.0427 42.2074 54.3451C42.0353 54.6428 41.8004 54.8731 41.5027 55.0359C41.2049 55.1987 40.8746 55.2801 40.5118 55.2801ZM40.5118 54.7219C40.7397 54.7219 40.9537 54.6684 41.1537 54.5614C41.3538 54.4544 41.5143 54.2939 41.6352 54.0799C41.7608 53.8659 41.8237 53.6054 41.8237 53.2984C41.8237 52.9913 41.7632 52.7308 41.6422 52.5168C41.5213 52.3028 41.3631 52.1446 41.1677 52.0423C40.9723 51.9353 40.7606 51.8818 40.5327 51.8818C40.3001 51.8818 40.0861 51.9353 39.8907 52.0423C39.7 52.1446 39.5464 52.3028 39.4301 52.5168C39.3138 52.7308 39.2557 52.9913 39.2557 53.2984C39.2557 53.61 39.3115 53.8729 39.4232 54.0869C39.5395 54.3009 39.693 54.4614 39.8837 54.5684C40.0745 54.6707 40.2838 54.7219 40.5118 54.7219ZM48.4016 51.3933L47.2083 55.2173H46.5524L45.6313 52.1818L44.7102 55.2173H44.0542L42.854 51.3933H43.5029L44.3822 54.6033L45.3312 51.3933H45.9802L46.9083 54.6102L47.7736 51.3933H48.4016Z" fill="white"/>
</svg>
