<svg width="73" height="62" viewBox="0 0 73 62" fill="none" xmlns="http://www.w3.org/2000/svg">
<path d="M52.8553 21.634C52.514 21.2895 52.1082 21.0161 51.6612 20.8293C51.2143 20.6426 50.735 20.5463 50.2508 20.5459H50.2385C49.7522 20.5444 49.2705 20.6399 48.8213 20.8267C48.372 21.0134 47.9643 21.2879 47.6216 21.634L41.5747 27.7011C41.5081 26.7681 41.0924 25.895 40.4109 25.2567C39.7295 24.6184 38.8327 24.2623 37.9005 24.2597H29.2639C27.6284 24.2616 26.0604 24.9144 24.904 26.0747C23.7475 27.2351 23.0969 28.8083 23.0949 30.4493V31.275L19.3936 36.2217L21.3676 37.7072L25.5625 32.0994V30.4493C25.5635 29.4646 25.9538 28.5206 26.6477 27.8243C27.3417 27.1281 28.2826 26.7365 29.2639 26.7355H37.9005C38.2277 26.7355 38.5415 26.8659 38.7729 27.0981C39.0043 27.3302 39.1343 27.6451 39.1343 27.9734C39.1343 28.3017 39.0043 28.6166 38.7729 28.8488C38.5415 29.0809 38.2277 29.2113 37.9005 29.2113H32.9653V31.6872H39.0467C39.695 31.689 40.3373 31.5616 40.9362 31.3126C41.5351 31.0635 42.0788 30.6977 42.5359 30.2363L49.3662 23.3844C49.4804 23.2691 49.6164 23.1776 49.7661 23.1154C49.9158 23.0531 50.0764 23.0213 50.2385 23.0217H50.2422C50.4858 23.0225 50.7238 23.0957 50.9261 23.232C51.1284 23.3683 51.2859 23.5617 51.3788 23.7877C51.4717 24.0137 51.4958 24.2622 51.4481 24.502C51.4004 24.7418 51.283 24.962 51.1108 25.1349L41.9634 34.3128C41.6204 34.659 41.2124 34.9334 40.763 35.1201C40.3136 35.3069 39.8317 35.4024 39.3453 35.401H30.4977V37.8768H39.3453C40.1559 37.8791 40.9589 37.72 41.7078 37.4087C42.4566 37.0974 43.1365 36.6401 43.708 36.0633L52.8553 26.8853C53.1991 26.5405 53.4718 26.1312 53.6578 25.6807C53.8438 25.2302 53.9396 24.7473 53.9396 24.2597C53.9396 23.772 53.8438 23.2891 53.6578 22.8386C53.4718 22.3881 53.1991 21.9788 52.8553 21.634ZM43.5587 11.3679L39.1343 15.5942V3.21497H36.6667V15.5942L32.2423 11.3679L30.4977 13.1183L37.9005 20.5459L45.3033 13.1183L43.5587 11.3679Z" fill="#B3B3B3"/>
<path d="M27.3301 52.7122C27.5069 52.7401 27.6674 52.8122 27.8116 52.9285C27.9605 53.0448 28.0768 53.189 28.1605 53.3612C28.2489 53.5333 28.2931 53.717 28.2931 53.9124C28.2931 54.159 28.2303 54.3823 28.1047 54.5823C27.9791 54.7777 27.7953 54.9336 27.5534 55.0499C27.3161 55.1615 27.0347 55.2173 26.709 55.2173H24.8947V50.3536H26.6393C26.9696 50.3536 27.251 50.4094 27.4836 50.521C27.7162 50.628 27.8907 50.7746 28.007 50.9607C28.1233 51.1468 28.1814 51.3561 28.1814 51.5887C28.1814 51.8771 28.1023 52.1167 27.9442 52.3075C27.7907 52.4935 27.586 52.6284 27.3301 52.7122ZM25.5297 52.454H26.5974C26.8951 52.454 27.1254 52.3842 27.2882 52.2447C27.4511 52.1051 27.5325 51.912 27.5325 51.6655C27.5325 51.4189 27.4511 51.2258 27.2882 51.0863C27.1254 50.9467 26.8905 50.8769 26.5834 50.8769H25.5297V52.454ZM26.6532 54.694C26.9696 54.694 27.2161 54.6196 27.3929 54.4707C27.5697 54.3218 27.6581 54.1148 27.6581 53.8496C27.6581 53.5798 27.565 53.3681 27.3789 53.2146C27.1929 53.0564 26.944 52.9774 26.6323 52.9774H25.5297V54.694H26.6532ZM30.8421 55.2801C30.4839 55.2801 30.1582 55.1987 29.8651 55.0359C29.5767 54.8731 29.3487 54.6428 29.1813 54.3451C29.0184 54.0427 28.937 53.6938 28.937 53.2984C28.937 52.9076 29.0208 52.5633 29.1883 52.2656C29.3604 51.9632 29.593 51.7329 29.8861 51.5747C30.1791 51.4119 30.5071 51.3305 30.87 51.3305C31.2329 51.3305 31.5608 51.4119 31.8539 51.5747C32.147 51.7329 32.3773 51.9609 32.5447 52.2586C32.7169 52.5563 32.8029 52.9029 32.8029 53.2984C32.8029 53.6938 32.7145 54.0427 32.5378 54.3451C32.3656 54.6428 32.1307 54.8731 31.833 55.0359C31.5352 55.1987 31.2049 55.2801 30.8421 55.2801ZM30.8421 54.7219C31.07 54.7219 31.284 54.6684 31.4841 54.5614C31.6841 54.4544 31.8446 54.2939 31.9656 54.0799C32.0912 53.8659 32.154 53.6054 32.154 53.2984C32.154 52.9913 32.0935 52.7308 31.9725 52.5168C31.8516 52.3028 31.6934 52.1446 31.498 52.0423C31.3026 51.9353 31.091 51.8818 30.863 51.8818C30.6304 51.8818 30.4164 51.9353 30.221 52.0423C30.0303 52.1446 29.8768 52.3028 29.7605 52.5168C29.6442 52.7308 29.586 52.9913 29.586 53.2984C29.586 53.61 29.6418 53.8729 29.7535 54.0869C29.8698 54.3009 30.0233 54.4614 30.214 54.5684C30.4048 54.6707 30.6141 54.7219 30.8421 54.7219ZM34.2729 52.0144C34.3845 51.7957 34.5427 51.6259 34.7474 51.505C34.9567 51.384 35.2103 51.3235 35.508 51.3235V51.9795H35.3405C34.6288 51.9795 34.2729 52.3656 34.2729 53.1379V55.2173H33.6379V51.3933H34.2729V52.0144ZM36.8761 52.0144C36.9877 51.7957 37.1459 51.6259 37.3506 51.505C37.5599 51.384 37.8135 51.3235 38.1112 51.3235V51.9795H37.9437C37.2319 51.9795 36.8761 52.3656 36.8761 53.1379V55.2173H36.241V51.3933H36.8761V52.0144ZM40.512 55.2801C40.1538 55.2801 39.8281 55.1987 39.5351 55.0359C39.2466 54.8731 39.0187 54.6428 38.8512 54.3451C38.6884 54.0427 38.607 53.6938 38.607 53.2984C38.607 52.9076 38.6907 52.5633 38.8582 52.2656C39.0303 51.9632 39.2629 51.7329 39.556 51.5747C39.8491 51.4119 40.1771 51.3305 40.5399 51.3305C40.9028 51.3305 41.2308 51.4119 41.5238 51.5747C41.8169 51.7329 42.0472 51.9609 42.2147 52.2586C42.3868 52.5563 42.4729 52.9029 42.4729 53.2984C42.4729 53.6938 42.3845 54.0427 42.2077 54.3451C42.0356 54.6428 41.8006 54.8731 41.5029 55.0359C41.2052 55.1987 40.8749 55.2801 40.512 55.2801ZM40.512 54.7219C40.74 54.7219 40.954 54.6684 41.154 54.5614C41.354 54.4544 41.5145 54.2939 41.6355 54.0799C41.7611 53.8659 41.8239 53.6054 41.8239 53.2984C41.8239 52.9913 41.7634 52.7308 41.6425 52.5168C41.5215 52.3028 41.3633 52.1446 41.1679 52.0423C40.9726 51.9353 40.7609 51.8818 40.5329 51.8818C40.3003 51.8818 40.0863 51.9353 39.8909 52.0423C39.7002 52.1446 39.5467 52.3028 39.4304 52.5168C39.3141 52.7308 39.2559 52.9913 39.2559 53.2984C39.2559 53.61 39.3118 53.8729 39.4234 54.0869C39.5397 54.3009 39.6932 54.4614 39.884 54.5684C40.0747 54.6707 40.284 54.7219 40.512 54.7219ZM48.4018 51.3933L47.2086 55.2173H46.5526L45.6315 52.1818L44.7104 55.2173H44.0545L42.8542 51.3933H43.5032L44.3824 54.6033L45.3315 51.3933H45.9804L46.9085 54.6102L47.7738 51.3933H48.4018Z" fill="#B3B3B3"/>
</svg>
