<svg width="74" height="58" viewBox="0 0 74 58" fill="none" xmlns="http://www.w3.org/2000/svg">
<path d="M45.7559 18.2906V5.10792C45.7559 4.23385 45.4087 3.39559 44.7906 2.77753C44.1726 2.15948 43.3343 1.81226 42.4602 1.81226H39.1646M39.1646 1.81226H29.2776C28.4035 1.81226 27.5653 2.15948 26.9472 2.77753C26.3292 3.39559 25.9819 4.23385 25.9819 5.10792V24.8819C25.9819 25.7559 26.3292 26.5942 26.9472 27.2123C27.5653 27.8303 28.4035 28.1775 29.2776 28.1775H40.8124M39.1646 1.81226V19.1145M32.5733 8.40358V13.3471" stroke="white" stroke-width="1.92917" stroke-linecap="round" stroke-linejoin="round"/>
<path d="M52.3472 33.121V21.4214C52.3468 19.9064 52.048 18.4062 51.4679 17.0067C50.8877 15.6071 50.0375 14.3356 48.9658 13.2647L45.7525 10.0514V20.9056C45.7525 22.3722 43.9778 23.1088 42.9397 22.0707L40.8058 19.9384C39.9818 19.1145 38.0028 18.6201 36.6829 19.9384C35.3646 21.2566 35.859 23.234 36.6829 24.0579L45.7509 33.121" stroke="white" stroke-width="1.92917" stroke-linecap="round" stroke-linejoin="round"/>
<path d="M22.5812 53.2043H26.1116V54.275H21.2645V44.1903H22.5812V53.2043ZM34.7442 50.0067C34.7442 50.2575 34.7297 50.5228 34.7008 50.8025H28.3635C28.4117 51.5838 28.677 52.1963 29.1593 52.6401C29.6512 53.0741 30.2444 53.2911 30.9389 53.2911C31.508 53.2911 31.9807 53.1609 32.3569 52.9005C32.7427 52.6304 33.0128 52.2735 33.1671 51.8298H34.5851C34.3729 52.5918 33.9484 53.214 33.3118 53.6963C32.6752 54.1689 31.8842 54.4052 30.9389 54.4052C30.1866 54.4052 29.5114 54.2364 28.9133 53.8988C28.3249 53.5612 27.8619 53.0838 27.5243 52.4664C27.1867 51.8395 27.0179 51.116 27.0179 50.2961C27.0179 49.4762 27.1819 48.7576 27.5098 48.1403C27.8378 47.5229 28.296 47.0503 28.8844 46.7223C29.4824 46.3847 30.1673 46.2159 30.9389 46.2159C31.6913 46.2159 32.3569 46.3799 32.9356 46.7079C33.5144 47.0358 33.9581 47.4892 34.2667 48.0679C34.5851 48.637 34.7442 49.2833 34.7442 50.0067ZM33.3842 49.7318C33.3842 49.2303 33.2732 48.801 33.0514 48.4441C32.8295 48.0776 32.5257 47.8027 32.1398 47.6194C31.7637 47.4265 31.3441 47.33 30.8811 47.33C30.2155 47.33 29.6464 47.5422 29.1737 47.9666C28.7107 48.3911 28.4455 48.9795 28.378 49.7318H33.3842ZM40.3453 46.2015C41.3099 46.2015 42.0912 46.4957 42.6893 47.0841C43.2873 47.6628 43.5863 48.502 43.5863 49.6016V54.275H42.2841V49.7897C42.2841 48.9988 42.0864 48.3959 41.6909 47.9811C41.2954 47.5567 40.7553 47.3445 40.0704 47.3445C39.3759 47.3445 38.8213 47.5615 38.4065 47.9956C38.0014 48.4296 37.7988 49.0615 37.7988 49.891V54.275H36.4822V46.3461H37.7988V47.4747C38.0593 47.0696 38.4113 46.7561 38.855 46.5342C39.3084 46.3124 39.8052 46.2015 40.3453 46.2015ZM45.2451 50.2816C45.2451 49.4714 45.4091 48.7624 45.7371 48.1547C46.065 47.5374 46.5136 47.0599 47.0827 46.7223C47.6614 46.3847 48.3077 46.2159 49.0215 46.2159C49.6388 46.2159 50.2127 46.3606 50.7433 46.65C51.2738 46.9297 51.6789 47.3011 51.9586 47.7641V43.5681H53.2898V54.275H51.9586V52.7847C51.6982 53.2574 51.3124 53.648 50.8011 53.9567C50.2899 54.2557 49.6919 54.4052 49.007 54.4052C48.3029 54.4052 47.6614 54.2316 47.0827 53.8844C46.5136 53.5371 46.065 53.05 45.7371 52.423C45.4091 51.796 45.2451 51.0823 45.2451 50.2816ZM51.9586 50.2961C51.9586 49.6981 51.8381 49.1772 51.5969 48.7335C51.3558 48.2898 51.0278 47.9522 50.613 47.7207C50.2079 47.4795 49.7594 47.359 49.2675 47.359C48.7755 47.359 48.327 47.4747 47.9219 47.7062C47.5167 47.9377 47.1936 48.2753 46.9525 48.719C46.7113 49.1627 46.5907 49.6836 46.5907 50.2816C46.5907 50.8893 46.7113 51.4199 46.9525 51.8732C47.1936 52.3169 47.5167 52.6593 47.9219 52.9005C48.327 53.132 48.7755 53.2477 49.2675 53.2477C49.7594 53.2477 50.2079 53.132 50.613 52.9005C51.0278 52.6593 51.3558 52.3169 51.5969 51.8732C51.8381 51.4199 51.9586 50.8942 51.9586 50.2961Z" fill="white"/>
</svg>
