<svg width="73" height="57" viewBox="0 0 73 57" fill="none" xmlns="http://www.w3.org/2000/svg">
<path d="M45.0401 17.1964V3.99192C45.0401 3.11641 44.6934 2.27676 44.0764 1.65767C43.4594 1.03859 42.6225 0.690796 41.7499 0.690796H38.4598M38.4598 0.690796H28.5894C27.7168 0.690796 26.88 1.03859 26.263 1.65767C25.646 2.27676 25.2993 3.11641 25.2993 3.99192V23.7987C25.2993 24.6742 25.646 25.5139 26.263 26.1329C26.88 26.752 27.7168 27.0998 28.5894 27.0998H40.1049M38.4598 0.690796V18.0217M31.8796 7.29305V12.2447" stroke="#B3B3B3" stroke-width="0.930421" stroke-linecap="round" stroke-linejoin="round"/>
<path d="M51.6203 32.0515V20.3325C51.6199 18.8149 51.3217 17.3123 50.7425 15.9104C50.1632 14.5086 49.3145 13.2349 48.2446 12.1622L45.0367 8.9436V19.8159C45.0367 21.2849 43.265 22.0227 42.2286 20.9828L40.0982 18.847C39.2757 18.0217 37.3 17.5265 35.9823 18.847C34.6662 20.1674 35.1598 22.1481 35.9823 22.9734L45.0351 32.0515" stroke="#B3B3B3" stroke-width="0.930421" stroke-linecap="round" stroke-linejoin="round"/>
<path d="M29.4871 49.701H31.1897V50.2174H28.852V45.3536H29.4871V49.701ZM35.3532 48.1589C35.3532 48.2798 35.3462 48.4077 35.3322 48.5426H32.2758C32.2991 48.9195 32.427 49.2149 32.6596 49.4289C32.8969 49.6382 33.183 49.7429 33.5179 49.7429C33.7924 49.7429 34.0203 49.6801 34.2018 49.5545C34.3879 49.4242 34.5181 49.2521 34.5926 49.0381H35.2764C35.1741 49.4056 34.9694 49.7057 34.6623 49.9383C34.3553 50.1662 33.9738 50.2802 33.5179 50.2802C33.1551 50.2802 32.8294 50.1988 32.541 50.036C32.2572 49.8732 32.0339 49.6429 31.8711 49.3451C31.7082 49.0428 31.6268 48.6938 31.6268 48.2984C31.6268 47.903 31.7059 47.5564 31.8641 47.2587C32.0223 46.9609 32.2432 46.733 32.527 46.5748C32.8155 46.412 33.1457 46.3306 33.5179 46.3306C33.8808 46.3306 34.2018 46.4097 34.4809 46.5678C34.76 46.726 34.974 46.9447 35.1229 47.2238C35.2764 47.4983 35.3532 47.8099 35.3532 48.1589ZM34.6972 48.0263C34.6972 47.7844 34.6437 47.5773 34.5367 47.4052C34.4297 47.2284 34.2832 47.0958 34.0971 47.0075C33.9157 46.9144 33.7133 46.8679 33.49 46.8679C33.169 46.8679 32.8945 46.9702 32.6666 47.1749C32.4433 47.3796 32.3153 47.6634 32.2828 48.0263H34.6972ZM38.0545 46.3236C38.5197 46.3236 38.8966 46.4655 39.185 46.7493C39.4734 47.0284 39.6176 47.4331 39.6176 47.9635V50.2174H38.9896V48.0542C38.9896 47.6727 38.8942 47.3819 38.7035 47.1819C38.5128 46.9772 38.2523 46.8749 37.922 46.8749C37.587 46.8749 37.3195 46.9795 37.1195 47.1889C36.9241 47.3982 36.8264 47.7029 36.8264 48.103V50.2174H36.1914V46.3934H36.8264V46.9377C36.952 46.7423 37.1218 46.5911 37.3358 46.4841C37.5544 46.3771 37.794 46.3236 38.0545 46.3236ZM40.4177 48.2914C40.4177 47.9007 40.4968 47.5587 40.6549 47.2656C40.8131 46.9679 41.0294 46.7376 41.3039 46.5748C41.583 46.412 41.8947 46.3306 42.239 46.3306C42.5367 46.3306 42.8135 46.4004 43.0694 46.5399C43.3252 46.6748 43.5206 46.8539 43.6555 47.0772V45.0536H44.2975V50.2174H43.6555V49.4987C43.5299 49.7266 43.3439 49.915 43.0973 50.0639C42.8507 50.2081 42.5623 50.2802 42.232 50.2802C41.8924 50.2802 41.583 50.1965 41.3039 50.029C41.0294 49.8615 40.8131 49.6266 40.6549 49.3242C40.4968 49.0218 40.4177 48.6776 40.4177 48.2914ZM43.6555 48.2984C43.6555 48.01 43.5974 47.7588 43.4811 47.5448C43.3648 47.3308 43.2066 47.168 43.0066 47.0563C42.8112 46.94 42.5949 46.8818 42.3576 46.8818C42.1203 46.8818 41.904 46.9377 41.7086 47.0493C41.5133 47.161 41.3574 47.3238 41.2411 47.5378C41.1248 47.7518 41.0666 48.003 41.0666 48.2914C41.0666 48.5845 41.1248 48.8404 41.2411 49.059C41.3574 49.273 41.5133 49.4382 41.7086 49.5545C41.904 49.6661 42.1203 49.722 42.3576 49.722C42.5949 49.722 42.8112 49.6661 43.0066 49.5545C43.2066 49.4382 43.3648 49.273 43.4811 49.059C43.5974 48.8404 43.6555 48.5868 43.6555 48.2984Z" fill="#B3B3B3"/>
</svg>
