<svg width="35" height="35" viewBox="0 0 35 35" fill="none" xmlns="http://www.w3.org/2000/svg">
<g clip-path="url(#clip0_8_226)">
<path fill-rule="evenodd" clip-rule="evenodd" d="M0.358398 8.70843C0.358398 8.28872 0.525128 7.8862 0.821908 7.58942C1.11869 7.29264 1.52121 7.12592 1.94092 7.12592H32.5363C32.956 7.12592 33.3585 7.29264 33.6553 7.58942C33.9521 7.8862 34.1188 8.28872 34.1188 8.70843C34.1188 9.12815 33.9521 9.53067 33.6553 9.82745C33.3585 10.1242 32.956 10.291 32.5363 10.291H1.94092C1.52121 10.291 1.11869 10.1242 0.821908 9.82745C0.525128 9.53067 0.358398 9.12815 0.358398 8.70843ZM0.358398 17.676C0.358398 17.2563 0.525128 16.8538 0.821908 16.557C1.11869 16.2603 1.52121 16.0935 1.94092 16.0935H32.5363C32.956 16.0935 33.3585 16.2603 33.6553 16.557C33.9521 16.8538 34.1188 17.2563 34.1188 17.676C34.1188 18.0958 33.9521 18.4983 33.6553 18.7951C33.3585 19.0918 32.956 19.2586 32.5363 19.2586H1.94092C1.52121 19.2586 1.11869 19.0918 0.821908 18.7951C0.525128 18.4983 0.358398 18.0958 0.358398 17.676ZM1.94092 25.0611C1.52121 25.0611 1.11869 25.2279 0.821908 25.5246C0.525128 25.8214 0.358398 26.2239 0.358398 26.6437C0.358398 27.0634 0.525128 27.4659 0.821908 27.7627C1.11869 28.0594 1.52121 28.2262 1.94092 28.2262H32.5363C32.956 28.2262 33.3585 28.0594 33.6553 27.7627C33.9521 27.4659 34.1188 27.0634 34.1188 26.6437C34.1188 26.2239 33.9521 25.8214 33.6553 25.5246C33.3585 25.2279 32.956 25.0611 32.5363 25.0611H1.94092Z" fill="white"/>
</g>
<defs>
<clipPath id="clip0_8_226">
<rect width="33.7604" height="33.7604" fill="white" transform="translate(0.358398 0.795837)"/>
</clipPath>
</defs>
</svg>
