<svg width="74" height="66" viewBox="0 0 74 66" fill="none" xmlns="http://www.w3.org/2000/svg">
<path d="M20.6967 40.9053C21.432 41.6417 22.3083 42.0065 23.3381 42.0065H51.1437C52.1736 42.0065 53.0499 41.6417 53.7852 40.9053C54.5193 40.1675 54.8833 39.2877 54.8833 38.2536V10.355C54.8833 9.32102 54.5194 8.4414 53.7855 7.70362L20.6967 40.9053ZM20.6967 40.9053C19.9625 40.1675 19.5985 39.2877 19.5985 38.2536V10.355C19.5985 9.32094 19.9625 8.44127 20.6966 7.70345C21.4319 6.96701 22.3082 6.60214 23.3381 6.60214H51.1437C52.1736 6.60214 53.0499 6.96697 53.7852 7.70334L20.6967 40.9053ZM39.227 26.0645H38.9944V26.2971V32.2753C38.9944 32.7817 38.8265 33.1946 38.4923 33.53C38.1566 33.8668 37.7447 34.0355 37.2409 34.0355C36.7372 34.0355 36.3261 33.8668 35.9919 33.5303L35.9913 33.5297C35.6558 33.1943 35.4874 32.7815 35.4874 32.2753V26.2971V26.0645H35.2548H29.2965C28.7927 26.0645 28.3808 25.8958 28.0451 25.559C27.7109 25.2236 27.543 24.8107 27.543 24.3043C27.543 23.7981 27.7108 23.3845 28.045 23.0478C28.3806 22.7123 28.7925 22.5442 29.2965 22.5442H35.2548H35.4874V22.3116V16.3333C35.4874 15.8271 35.6558 15.4135 35.9916 15.0767C36.3258 14.7413 36.7369 14.5732 37.2409 14.5732C37.7449 14.5732 38.1568 14.7413 38.4924 15.0768C38.8266 15.4135 38.9944 15.8271 38.9944 16.3333V22.3116V22.5442H39.227H45.1854C45.6894 22.5442 46.1005 22.7124 46.4347 23.0477C46.7705 23.3845 46.9389 23.7982 46.9389 24.3043C46.9389 24.8105 46.7705 25.2232 46.435 25.5587L46.4345 25.5592C46.1002 25.8958 45.6892 26.0645 45.1854 26.0645H39.227ZM23.1055 38.2536V38.4862H23.3381H51.1437H51.3763V38.2536V10.355V10.1224H51.1437H23.3381H23.1055V10.355V38.2536Z" fill="white" stroke="#144272" stroke-width="0.46521"/>
<path d="M33.6837 55.7771C33.6837 56.1819 33.5441 56.5191 33.265 56.789C32.9905 57.0541 32.5695 57.1867 32.0019 57.1867H31.0669V59.2174H30.4319V54.3536H32.0019C32.5509 54.3536 32.9673 54.4862 33.251 54.7513C33.5395 55.0165 33.6837 55.3584 33.6837 55.7771ZM32.0019 56.6633C32.3555 56.6633 32.616 56.5866 32.7835 56.4331C32.951 56.2795 33.0347 56.0609 33.0347 55.7771C33.0347 55.177 32.6905 54.8769 32.0019 54.8769H31.0669V56.6633H32.0019ZM36.1407 59.2802C35.7825 59.2802 35.4568 59.1987 35.1638 59.0359C34.8753 58.8731 34.6474 58.6428 34.4799 58.3451C34.3171 58.0427 34.2357 57.6938 34.2357 57.2984C34.2357 56.9076 34.3194 56.5633 34.4869 56.2656C34.659 55.9632 34.8916 55.7329 35.1847 55.5748C35.4778 55.4119 35.8058 55.3305 36.1686 55.3305C36.5315 55.3305 36.8595 55.4119 37.1525 55.5748C37.4456 55.7329 37.6759 55.9609 37.8434 56.2586C38.0155 56.5563 38.1016 56.9029 38.1016 57.2984C38.1016 57.6938 38.0132 58.0427 37.8364 58.3451C37.6643 58.6428 37.4293 58.8731 37.1316 59.0359C36.8339 59.1987 36.5036 59.2802 36.1407 59.2802ZM36.1407 58.7219C36.3687 58.7219 36.5827 58.6684 36.7827 58.5614C36.9827 58.4544 37.1432 58.2939 37.2642 58.0799C37.3898 57.8659 37.4526 57.6054 37.4526 57.2984C37.4526 56.9913 37.3921 56.7308 37.2712 56.5168C37.1502 56.3028 36.992 56.1446 36.7966 56.0423C36.6013 55.9353 36.3896 55.8818 36.1616 55.8818C35.929 55.8818 35.715 55.9353 35.5196 56.0423C35.3289 56.1446 35.1754 56.3028 35.0591 56.5168C34.9428 56.7308 34.8846 56.9913 34.8846 57.2984C34.8846 57.61 34.9405 57.8729 35.0521 58.0869C35.1684 58.3009 35.3219 58.4614 35.5127 58.5684C35.7034 58.6707 35.9127 58.7219 36.1407 58.7219ZM40.2903 59.2802C39.9972 59.2802 39.7343 59.2313 39.5017 59.1336C39.2691 59.0313 39.0854 58.8917 38.9504 58.7149C38.8155 58.5335 38.7411 58.3265 38.7271 58.0939H39.3831C39.4017 58.2846 39.4901 58.4404 39.6483 58.5614C39.8111 58.6824 40.0228 58.7428 40.2833 58.7428C40.5252 58.7428 40.7159 58.6893 40.8555 58.5823C40.995 58.4753 41.0648 58.3404 41.0648 58.1776C41.0648 58.0101 40.9904 57.8868 40.8415 57.8078C40.6927 57.724 40.4624 57.6426 40.1507 57.5635C39.8669 57.4891 39.6343 57.4147 39.4529 57.3402C39.2761 57.2611 39.1226 57.1472 38.9923 56.9983C38.8667 56.8448 38.8039 56.6447 38.8039 56.3982C38.8039 56.2028 38.8621 56.0237 38.9784 55.8609C39.0947 55.698 39.2598 55.5701 39.4738 55.4771C39.6878 55.3794 39.932 55.3305 40.2065 55.3305C40.6299 55.3305 40.9718 55.4375 41.2323 55.6515C41.4928 55.8655 41.6324 56.1586 41.651 56.5308H41.016C41.002 56.3307 40.9206 56.1702 40.7717 56.0493C40.6275 55.9283 40.4321 55.8678 40.1856 55.8678C39.9576 55.8678 39.7762 55.9167 39.6413 56.0144C39.5064 56.1121 39.4389 56.24 39.4389 56.3982C39.4389 56.5238 39.4785 56.6285 39.5575 56.7122C39.6413 56.7913 39.7436 56.8564 39.8646 56.9076C39.9902 56.9541 40.1623 57.0076 40.381 57.0681C40.6554 57.1425 40.8787 57.2169 41.0509 57.2914C41.223 57.3612 41.3695 57.4682 41.4905 57.6124C41.6161 57.7566 41.6812 57.945 41.6859 58.1776C41.6859 58.3869 41.6277 58.5754 41.5114 58.7428C41.3951 58.9103 41.23 59.0429 41.016 59.1406C40.8066 59.2336 40.5647 59.2802 40.2903 59.2802ZM43.3569 55.9167V58.1706C43.3569 58.3567 43.3964 58.4893 43.4755 58.5684C43.5546 58.6428 43.6918 58.68 43.8872 58.68H44.3548V59.2174H43.7825C43.429 59.2174 43.1638 59.1359 42.987 58.9731C42.8103 58.8103 42.7219 58.5428 42.7219 58.1706V55.9167H42.2264V55.3933H42.7219V54.4303H43.3569V55.3933H44.3548V55.9167H43.3569Z" fill="white"/>
</svg>
