<svg width="32" height="32" viewBox="0 0 32 32" fill="none" xmlns="http://www.w3.org/2000/svg">
<path d="M15.7616 0.91114C13.1074 0.910939 10.4989 1.60198 8.19298 2.91624C5.88704 4.23049 3.96313 6.12264 2.61068 8.40639C1.25822 10.6901 0.523857 13.2867 0.479881 15.9405C0.435906 18.5944 1.08384 21.2139 2.35988 23.5412L1.11082 27.9496C0.9943 28.3513 0.98775 28.777 1.09186 29.1821C1.19596 29.5872 1.4069 29.9569 1.70266 30.2527C1.99843 30.5484 2.36816 30.7594 2.77326 30.8635C3.17837 30.9676 3.60399 30.961 4.0057 30.8445L8.41415 29.5954C10.4571 30.7152 12.7291 31.353 15.0564 31.4602C17.3837 31.5674 19.7046 31.1411 21.8419 30.2138C23.9792 29.2866 25.8762 27.883 27.3879 26.1103C28.8996 24.3376 29.986 22.2428 30.5641 19.9859C31.1422 17.7291 31.1967 15.3699 30.7233 13.0887C30.25 10.8076 29.2614 8.66487 27.8331 6.82432C26.4047 4.98378 24.5745 3.49414 22.4823 2.46928C20.3901 1.44442 18.0913 0.911463 15.7616 0.91114ZM15.7616 29.1252C13.4402 29.1231 11.1619 28.4989 9.16359 27.3177C8.97918 27.2149 8.77219 27.1594 8.5611 27.1561C8.45185 27.1562 8.34311 27.1711 8.23781 27.2002L3.35913 28.5962L4.75514 23.7175C4.79808 23.5631 4.8098 23.4017 4.78962 23.2428C4.76943 23.0838 4.71774 22.9305 4.63758 22.7917C3.18185 20.3379 2.57848 17.4716 2.92147 14.6392C3.26446 11.8068 4.53454 9.1673 6.53389 7.13191C8.53324 5.09651 11.1496 3.77947 13.9754 3.38592C16.8013 2.99238 19.6779 3.54443 22.1573 4.95608C24.6367 6.36774 26.5797 8.55975 27.6835 11.1907C28.7874 13.8216 28.9902 16.7437 28.2603 19.5019C27.5304 22.2601 25.9088 24.6994 23.6482 26.44C21.3875 28.1806 18.6147 29.1247 15.7616 29.1252ZM21.6395 13.8426C21.6395 14.1544 21.5156 14.4534 21.2952 14.6739C21.0747 14.8943 20.7757 15.0182 20.4639 15.0182H11.0592C10.7474 15.0182 10.4484 14.8943 10.228 14.6739C10.0075 14.4534 9.88363 14.1544 9.88363 13.8426C9.88363 13.5308 10.0075 13.2318 10.228 13.0113C10.4484 12.7909 10.7474 12.667 11.0592 12.667H20.4639C20.7757 12.667 21.0747 12.7909 21.2952 13.0113C21.5156 13.2318 21.6395 13.5308 21.6395 13.8426ZM21.6395 18.5449C21.6395 18.8567 21.5156 19.1557 21.2952 19.3762C21.0747 19.5967 20.7757 19.7205 20.4639 19.7205H11.0592C10.7474 19.7205 10.4484 19.5967 10.228 19.3762C10.0075 19.1557 9.88363 18.8567 9.88363 18.5449C9.88363 18.2331 10.0075 17.9341 10.228 17.7137C10.4484 17.4932 10.7474 17.3693 11.0592 17.3693H20.4639C20.7757 17.3693 21.0747 17.4932 21.2952 17.7137C21.5156 17.9341 21.6395 18.2331 21.6395 18.5449Z" fill="white"/>
</svg>
